<svg id="Capa_1" enable-background="new 0 0 512 512" height="512" viewBox="0 0 512 512" width="512" xmlns="http://www.w3.org/2000/svg" xmlns:xlink="http://www.w3.org/1999/xlink"><linearGradient id="SVGID_1_" gradientUnits="userSpaceOnUse" x1="256" x2="256" y1="512" y2="0"><stop offset="0" stop-color="#fd3a84"/><stop offset="1" stop-color="#ffa68d"/></linearGradient><linearGradient id="SVGID_2_" gradientUnits="userSpaceOnUse" x1="256" x2="256" y1="391" y2="120.997"><stop offset="0" stop-color="#ffc2cc"/><stop offset="1" stop-color="#fff2f4"/></linearGradient><g id="Exhausted_2_"><g><g><circle cx="256" cy="256" fill="url(#SVGID_1_)" r="256"/></g></g><g><g><path d="m211 226c0-24.814-20.186-45-45-45s-45 20.186-45 45 20.186 45 45 45 45-20.186 45-45zm135-45c-24.814 0-45 20.186-45 45s20.186 45 45 45 45-20.186 45-45-20.186-45-45-45zm-56.045-14.077 60-16.465c7.998-2.183 12.715-10.444 10.518-18.428s-10.459-12.671-18.428-10.488l-60 16.465c-7.998 2.183-12.715 10.444-10.518 18.428 2.233 8.063 10.558 12.674 18.428 10.488zm-127.91-16.465 60 16.465c7.871 2.187 16.195-2.426 18.428-10.488 2.197-7.983-2.52-16.245-10.518-18.428l-60-16.465c-7.881-2.212-16.201 2.505-18.428 10.488-2.197 7.984 2.52 16.245 10.518 18.428zm93.955 120.542c-57.891 0-105 47.109-105 105 0 8.291 6.709 15 15 15h180c8.291 0 15-6.709 15-15 0-57.891-47.109-105-105-105z" fill="url(#SVGID_2_)"/></g></g></g></svg>